<svg xmlns="http://www.w3.org/2000/svg" version="1.1" xmlns:xlink="http://www.w3.org/1999/xlink" xmlns:svgjs="http://svgjs.dev/svgjs" width="1000" height="270" viewBox="0 0 1000 270"><g transform="matrix(1,0,0,1,-0.6060510819170872,0.06678854101889442)"><svg viewBox="0 0 396 107" data-background-color="#051726" preserveAspectRatio="xMidYMid meet" height="270" width="1000" xmlns="http://www.w3.org/2000/svg" xmlns:xlink="http://www.w3.org/1999/xlink"><g id="tight-bounds" transform="matrix(1,0,0,1,0.23999622843916768,-0.026468051440815543)"><svg viewBox="0 0 395.52 107.05293610288162" height="107.05293610288162" width="395.52"><g><svg viewBox="0 0 576.6096073110634 156.06733274620484" height="107.05293610288162" width="395.52"><g transform="matrix(1,0,0,1,181.08960731106345,35.52245123758631)"><svg viewBox="0 0 395.52 85.02243027103222" height="85.02243027103222" width="395.52"><g id="textblocktransform"><svg viewBox="0 0 395.52 85.02243027103222" height="85.02243027103222" width="395.52" id="textblock"><g><svg viewBox="0 0 395.52 52.996226988043276" height="52.996226988043276" width="395.52"><g transform="matrix(1,0,0,1,0,0)"><svg width="395.52" viewBox="3.25 -35.099998474121094 263.42999267578125 35.29999923706055" height="52.996226988043276" data-palette-color="#ffffff"><path d="M24.85-24.95L24.6-31.3Q22.05-32.3 19.25-32.3L19.25-32.3Q13.6-32.3 10.13-28.15 6.65-24 6.65-16 6.65-8 10.3-4.8L10.3-4.8Q12.8-2.55 17.25-2.55L17.25-2.55Q20.1-2.55 22.98-3.2 25.85-3.85 26.9-4.45L26.9-4.45 27.6-2Q25.4-0.55 19.9 0L19.9 0Q18.3 0.2 16.53 0.2 14.75 0.2 12.35-0.38 9.95-0.95 7.9-2.7L7.9-2.7Q3.25-6.65 3.25-15.85 3.25-25.05 7.63-30.08 12-35.1 19-35.1L19-35.1Q22.9-35.1 25.7-33.55L25.7-33.55Q26.75-33 27.35-32.35L27.35-32.35 27.35-25.1 24.85-24.95ZM56.5 0L53.2-9.25 37.8-9.25 34.6 0 31.35 0 44-35 47.05-35 60.15 0 56.5 0ZM45.35-31.2L38.65-11.75 52.3-11.75 45.35-31.2ZM85.15-3L84.9 0 65.95 0 65.95-35 69.35-35 69.35-3 85.15-3ZM109.24-35L108.99-32 94.44-32 94.44-18.85 107.94-18.85 107.69-15.85 94.44-15.85 94.44-3 110.24-3 109.99 0 91.04 0 91.04-35 109.24-35ZM145.74-20.1L145.74-20.1Q151.29-18.05 151.29-10.85L151.29-10.85Q151.29-7.2 150.46-5.2 149.64-3.2 148.09-2.05L148.09-2.05Q145.24 0 139.19 0L139.19 0 130.94 0 130.94-35 138.44-35Q146.34-35 148.44-31L148.44-31Q149.19-29.6 149.19-27.6 149.19-25.6 148.16-23.5 147.14-21.4 145.74-20.1ZM140.19-18.15L134.34-18.15 134.34-2.75 138.94-2.75Q143.59-2.75 145.49-4L145.49-4Q147.89-5.55 147.89-10.15L147.89-10.15Q147.89-16.4 143.49-17.7L143.49-17.7Q142.04-18.15 140.19-18.15L140.19-18.15ZM143.34-20.7L143.34-20.7Q145.79-23.9 145.79-27 145.79-30.1 143.84-31.18 141.89-32.25 138.19-32.25L138.19-32.25 134.34-32.25 134.34-20.9 140.44-20.9Q141.94-20.9 143.34-20.7ZM175.39-35L175.14-32 160.59-32 160.59-18.85 174.09-18.85 173.84-15.85 160.59-15.85 160.59-3 176.39-3 176.14 0 157.19 0 157.19-35 175.39-35ZM207.98 0L204.33 0 184.38-30.5 184.63 0 181.48 0 181.48-35 185.13-35 205.03-4.5 204.83-35 207.98-35 207.98 0ZM240.78 0L237.13 0 217.18-30.5 217.43 0 214.28 0 214.28-35 217.93-35 237.83-4.5 237.63-35 240.78-35 240.78 0ZM265.68-35L265.43-32 250.88-32 250.88-18.85 264.38-18.85 264.13-15.85 250.88-15.85 250.88-3 266.68-3 266.43 0 247.48 0 247.48-35 265.68-35Z" opacity="1" transform="matrix(1,0,0,1,0,0)" fill="#ffffff" class="wordmark-text-0" data-fill-palette-color="primary" id="text-0"></path></svg></g></svg></g><g transform="matrix(1,0,0,1,0,65.50736427047258)"><svg viewBox="0 0 232.209792 19.515066000559646" height="19.515066000559646" width="232.209792"><g transform="matrix(1,0,0,1,0,0)"><svg width="232.209792" viewBox="4.599999904632568 -36 536 45.04999923706055" height="19.515066000559646" data-palette-color="#81ffd9"><path d="M24.9-34.3L24.45-31.9 7.3-31.9 7.3-18.7 21.95-18.7 21.95-16.3 7.3-16.3 7.3 0 4.6 0 4.6-34.3 24.9-34.3ZM48-3.8Q46.7-1.8 44.5-0.65 42.3 0.5 39.75 0.5L39.75 0.5Q35.55 0.5 32.97-1.9 30.4-4.3 30.4-9.1L30.4-9.1 30.4-25.55 32.95-25.55 32.95-9.85Q32.95-5.8 34.82-3.8 36.7-1.8 40.15-1.8L40.15-1.8Q42.35-1.8 44.15-2.85 45.95-3.9 46.97-5.75 48-7.6 48-9.85L48-9.85 48-25.55 50.55-25.55 50.55-3.45Q50.55-1.8 51.9-1.8L51.9-1.8Q53.05-1.8 54.4-2.6L54.4-2.6 54.4-0.45Q53 0.5 51.2 0.5L51.2 0.5Q49.5 0.5 48.75-0.78 48-2.05 48-3.8L48-3.8ZM64.3 0L61.75 0 61.75-36 64.3-36 64.3 0ZM77.69 0L75.14 0 75.14-36 77.69-36 77.69 0ZM120.04-25.15L120.04-26.25Q120.04-29.25 117.56-30.83 115.09-32.4 111.24-32.4L111.24-32.4Q107.29-32.4 104.89-30.93 102.49-29.45 102.49-26.25L102.49-26.25Q102.49-24.15 103.74-22.88 104.99-21.6 106.84-20.88 108.69-20.15 111.84-19.35L111.84-19.35Q115.64-18.35 117.96-17.43 120.29-16.5 121.91-14.58 123.54-12.65 123.54-9.4L123.54-9.4Q123.54-4.25 120.16-1.88 116.79 0.5 111.39 0.5L111.39 0.5Q105.79 0.5 102.39-1.83 98.99-4.15 98.99-9.35L98.99-9.35 99.04-10.25 101.59-10.25 101.54-8.9Q101.54-5.25 104.19-3.58 106.84-1.9 111.19-1.9L111.19-1.9Q120.89-1.9 120.89-9.25L120.89-9.25Q120.89-11.6 119.56-13.05 118.24-14.5 116.31-15.25 114.39-16 111.04-16.9L111.04-16.9Q107.34-17.9 105.14-18.8 102.94-19.7 101.39-21.53 99.84-23.35 99.84-26.4L99.84-26.4Q99.84-30.6 103.06-32.7 106.29-34.8 111.19-34.8L111.19-34.8Q116.24-34.8 119.39-32.6 122.54-30.4 122.54-25.8L122.54-25.8 122.54-25.15 120.04-25.15ZM141.19-0.35Q140.54 0.05 139.61 0.28 138.69 0.5 137.79 0.5L137.79 0.5Q135.49 0.5 134.09-0.9 132.69-2.3 132.69-5.05L132.69-5.05 132.69-23.25 129.89-23.25 129.89-25.55 132.69-25.55 133.59-33.7 135.24-33.7 135.24-25.55 141.19-25.55 141.19-23.25 135.24-23.25 135.24-5.15Q135.24-3.15 136.01-2.48 136.79-1.8 138.09-1.8L138.09-1.8Q138.64-1.8 139.59-2.05 140.54-2.3 141.19-2.6L141.19-2.6 141.19-0.35ZM167.38-3.45Q167.38-1.8 168.73-1.8L168.73-1.8Q169.88-1.8 171.23-2.6L171.23-2.6 171.23-0.45Q169.83 0.5 168.03 0.5L168.03 0.5Q166.23 0.5 165.53-0.83 164.83-2.15 164.83-4.45L164.83-4.45Q163.28-1.9 160.96-0.7 158.63 0.5 155.48 0.5L155.48 0.5Q151.93 0.5 149.68-1.13 147.43-2.75 147.43-6.65L147.43-6.65Q147.43-10.2 149.56-11.98 151.68-13.75 155.31-14.28 158.93-14.8 164.83-14.8L164.83-14.8 164.83-18Q164.83-21.2 163.31-22.48 161.78-23.75 158.18-23.75L158.18-23.75Q154.88-23.75 152.88-22.48 150.88-21.2 150.88-18.55L150.88-18.55 150.88-17.75 148.43-17.75Q148.33-18.55 148.33-19.05L148.33-19.05Q148.33-22.3 151.11-24.18 153.88-26.05 158.18-26.05L158.18-26.05Q162.83-26.05 165.11-24.2 167.38-22.35 167.38-18.5L167.38-18.5 167.38-3.45ZM164.83-12.5Q159.53-12.5 156.51-12.15 153.48-11.8 151.73-10.53 149.98-9.25 149.98-6.6L149.98-6.6Q149.98-4.1 151.41-2.95 152.83-1.8 155.98-1.8L155.98-1.8Q158.23-1.8 160.26-2.8 162.28-3.8 163.56-5.83 164.83-7.85 164.83-10.8L164.83-10.8 164.83-12.5ZM197.48-9.85Q197.48-6.6 196.18-4.28 194.88-1.95 192.63-0.73 190.38 0.5 187.53 0.5L187.53 0.5Q184.38 0.5 181.96-1.03 179.53-2.55 178.18-5.45 176.83-8.35 176.83-12.4L176.83-12.4 176.83-13.15Q176.83-17.2 178.16-20.1 179.48-23 181.91-24.53 184.33-26.05 187.48-26.05L187.48-26.05Q190.33-26.05 192.61-24.83 194.88-23.6 196.18-21.28 197.48-18.95 197.48-15.7L197.48-15.7 194.98-15.7Q194.98-19.6 192.86-21.68 190.73-23.75 187.48-23.75L187.48-23.75Q183.88-23.75 181.63-21.1 179.38-18.45 179.38-13.45L179.38-13.45 179.38-12.1Q179.38-7.1 181.66-4.45 183.93-1.8 187.53-1.8L187.53-1.8Q190.78-1.8 192.88-3.85 194.98-5.9 194.98-9.85L194.98-9.85 197.48-9.85ZM223.38 0L213.38-11.6 208.18-6.35 208.18 0 205.63 0 205.63-36 208.18-36 208.18-9.3 222.68-25.55 225.83-25.55 215.08-13.5 226.68 0 223.38 0ZM245.02 0L245.02-34.3 256.02-34.3Q262.17-34.3 265.75-30.58 269.32-26.85 269.32-17.8L269.32-17.8 269.32-16.55Q269.32-7.55 265.72-3.78 262.12 0 256.02 0L256.02 0 245.02 0ZM256.02-2.4Q260.92-2.4 263.77-5.45 266.62-8.5 266.62-16.1L266.62-16.1 266.62-18.25Q266.62-31.9 256.02-31.9L256.02-31.9 247.72-31.9 247.72-2.4 256.02-2.4ZM297.37-9.45Q297.37-6.35 296.05-4.1 294.72-1.85 292.47-0.68 290.22 0.5 287.42 0.5L287.42 0.5Q284.27 0.5 281.85-1.03 279.42-2.55 278.07-5.45 276.72-8.35 276.72-12.4L276.72-12.4 276.72-13.15Q276.72-17.2 278.05-20.1 279.37-23 281.8-24.53 284.22-26.05 287.37-26.05L287.37-26.05Q290.22-26.05 292.5-24.83 294.77-23.6 296.07-21.28 297.37-18.95 297.37-15.7L297.37-15.7 297.37-12.5 279.27-12.5 279.27-12.1Q279.27-7.1 281.55-4.45 283.82-1.8 287.42-1.8L287.42-1.8Q290.62-1.8 292.75-3.75 294.87-5.7 294.87-9.45L294.87-9.45 297.37-9.45ZM287.37-23.75Q284.02-23.75 281.82-21.45 279.62-19.15 279.32-14.8L279.32-14.8 294.87-14.8 294.87-15.7Q294.87-19.6 292.75-21.68 290.62-23.75 287.37-23.75L287.37-23.75ZM325.47-25.55L315.12 0 312.87 0 302.57-25.55 305.32-25.55 314.07-3.7 314.17-3.7 322.97-25.55 325.47-25.55ZM350.77-9.45Q350.77-6.35 349.44-4.1 348.12-1.85 345.87-0.68 343.62 0.5 340.82 0.5L340.82 0.5Q337.67 0.5 335.24-1.03 332.82-2.55 331.47-5.45 330.12-8.35 330.12-12.4L330.12-12.4 330.12-13.15Q330.12-17.2 331.44-20.1 332.77-23 335.19-24.53 337.62-26.05 340.77-26.05L340.77-26.05Q343.62-26.05 345.89-24.83 348.17-23.6 349.47-21.28 350.77-18.95 350.77-15.7L350.77-15.7 350.77-12.5 332.67-12.5 332.67-12.1Q332.67-7.1 334.94-4.45 337.22-1.8 340.82-1.8L340.82-1.8Q344.02-1.8 346.14-3.75 348.27-5.7 348.27-9.45L348.27-9.45 350.77-9.45ZM340.77-23.75Q337.42-23.75 335.22-21.45 333.02-19.15 332.72-14.8L332.72-14.8 348.27-14.8 348.27-15.7Q348.27-19.6 346.14-21.68 344.02-23.75 340.77-23.75L340.77-23.75ZM362.26 0L359.71 0 359.71-36 362.26-36 362.26 0ZM382.16 0.5Q379.01 0.5 376.56-1.03 374.11-2.55 372.74-5.45 371.36-8.35 371.36-12.4L371.36-12.4 371.36-13.15Q371.36-17.2 372.74-20.1 374.11-23 376.56-24.53 379.01-26.05 382.16-26.05L382.16-26.05Q385.31-26.05 387.76-24.53 390.21-23 391.59-20.1 392.96-17.2 392.96-13.15L392.96-13.15 392.96-12.4Q392.96-8.35 391.59-5.45 390.21-2.55 387.76-1.03 385.31 0.5 382.16 0.5L382.16 0.5ZM382.16-1.8Q385.81-1.8 388.11-4.45 390.41-7.1 390.41-12.1L390.41-12.1 390.41-13.45Q390.41-18.45 388.11-21.1 385.81-23.75 382.16-23.75L382.16-23.75Q378.51-23.75 376.21-21.1 373.91-18.45 373.91-13.45L373.91-13.45 373.91-12.1Q373.91-7.1 376.21-4.45 378.51-1.8 382.16-1.8L382.16-1.8ZM403.86-21.7Q406.66-26.05 412.31-26.05L412.31-26.05Q416.81-26.05 419.63-22.68 422.46-19.3 422.46-12.55L422.46-12.55 422.46-12Q422.46-8.05 421.11-5.23 419.76-2.4 417.46-0.95 415.16 0.5 412.31 0.5L412.31 0.5Q409.66 0.5 407.53-0.58 405.41-1.65 404.16-3.55L404.16-3.55 404.16 9.05 401.61 9.05 401.61-25.55 403.31-25.55 403.86-21.7ZM404.11-12.1Q404.11-6.95 406.33-4.38 408.56-1.8 412.06-1.8L412.06-1.8Q415.51-1.8 417.71-4.4 419.91-7 419.91-12.1L419.91-12.1 419.91-12.65Q419.91-18.5 417.76-21.13 415.61-23.75 412.06-23.75L412.06-23.75Q408.46-23.75 406.28-21.18 404.11-18.6 404.11-12.7L404.11-12.7 404.11-12.1ZM455.91-26.05Q459.71-26.05 462.11-23.63 464.5-21.2 464.5-16.45L464.5-16.45 464.5 0 461.96 0 461.96-15.7Q461.96-23.75 455.71-23.75L455.71-23.75Q452.71-23.75 450.81-21.45 448.91-19.15 448.91-15.7L448.91-15.7 448.91 0 446.36 0 446.36-15.7Q446.36-23.75 440.11-23.75L440.11-23.75Q437.11-23.75 435.21-21.45 433.31-19.15 433.31-15.7L433.31-15.7 433.31 0 430.75 0 430.75-25.55 432.46-25.55 433.06-21.75Q434.16-23.75 436.11-24.9 438.06-26.05 440.31-26.05L440.31-26.05Q442.86-26.05 444.88-24.95 446.91-23.85 448-21.7L448-21.7Q449.11-23.55 451.18-24.8 453.25-26.05 455.91-26.05L455.91-26.05ZM493.15-9.45Q493.15-6.35 491.83-4.1 490.5-1.85 488.25-0.68 486 0.5 483.2 0.5L483.2 0.5Q480.05 0.5 477.63-1.03 475.2-2.55 473.85-5.45 472.5-8.35 472.5-12.4L472.5-12.4 472.5-13.15Q472.5-17.2 473.83-20.1 475.15-23 477.58-24.53 480-26.05 483.15-26.05L483.15-26.05Q486-26.05 488.28-24.83 490.55-23.6 491.85-21.28 493.15-18.95 493.15-15.7L493.15-15.7 493.15-12.5 475.05-12.5 475.05-12.1Q475.05-7.1 477.33-4.45 479.6-1.8 483.2-1.8L483.2-1.8Q486.4-1.8 488.53-3.75 490.65-5.7 490.65-9.45L490.65-9.45 493.15-9.45ZM483.15-23.75Q479.8-23.75 477.6-21.45 475.4-19.15 475.1-14.8L475.1-14.8 490.65-14.8 490.65-15.7Q490.65-19.6 488.53-21.68 486.4-23.75 483.15-23.75L483.15-23.75ZM519.5 0L519.5-15.7Q519.5-19.75 517.63-21.75 515.75-23.75 512.3-23.75L512.3-23.75Q510.1-23.75 508.3-22.7 506.5-21.65 505.48-19.8 504.45-17.95 504.45-15.7L504.45-15.7 504.45 0 501.9 0 501.9-25.55 503.6-25.55 504.15-21.75Q505.45-23.75 507.73-24.9 510-26.05 512.55-26.05L512.55-26.05Q516.75-26.05 519.38-23.63 522-21.2 522-16.45L522-16.45 522 0 519.5 0ZM540.6-0.35Q539.95 0.05 539.02 0.28 538.1 0.5 537.2 0.5L537.2 0.5Q534.9 0.5 533.5-0.9 532.1-2.3 532.1-5.05L532.1-5.05 532.1-23.25 529.3-23.25 529.3-25.55 532.1-25.55 533-33.7 534.65-33.7 534.65-25.55 540.6-25.55 540.6-23.25 534.65-23.25 534.65-5.15Q534.65-3.15 535.42-2.48 536.2-1.8 537.5-1.8L537.5-1.8Q538.05-1.8 539-2.05 539.95-2.3 540.6-2.6L540.6-2.6 540.6-0.35Z" opacity="1" transform="matrix(1,0,0,1,0,0)" fill="#81ffd9" class="slogan-text-1" data-fill-palette-color="secondary" id="text-1"></path></svg></g></svg></g></svg></g></svg></g><g><svg viewBox="0 0 156.06733274620484 156.06733274620484" height="156.06733274620484" width="156.06733274620484"><g><svg></svg></g><g id="icon-0"><svg viewBox="0 0 156.06733274620484 156.06733274620484" height="156.06733274620484" width="156.06733274620484"><g><path d="M0 78.034c0-43.097 34.937-78.034 78.034-78.034 43.097 0 78.034 34.937 78.033 78.034 0 43.097-34.937 78.034-78.033 78.033-43.097 0-78.034-34.937-78.034-78.033zM78.034 151.288c40.457 0 73.254-32.797 73.254-73.254 0-40.457-32.797-73.254-73.254-73.255-40.457 0-73.254 32.797-73.255 73.255 0 40.457 32.797 73.254 73.255 73.254z" data-fill-palette-color="accent" fill="#81ffd9" stroke="transparent"></path></g><g transform="matrix(1,0,0,1,32.13724975944806,34.15404984139977)"><svg viewBox="0 0 91.79283322730872 87.7592330634053" height="87.7592330634053" width="91.79283322730872"><g><svg xmlns="http://www.w3.org/2000/svg" xmlns:xlink="http://www.w3.org/1999/xlink" version="1.1" x="0" y="0" viewBox="1.9110000133514404 3.802999973297119 86.18099975585938 82.39399719238281" enable-background="new 0 0 90 90" xml:space="preserve" height="87.7592330634053" width="91.79283322730872" class="icon-s-0" data-fill-palette-color="accent" id="s-0"><path d="M48.813 86.197H13.525c-2.901 0-5.26-2.358-5.26-5.266V35.796c0-2.901 2.358-5.265 5.26-5.265h35.286c2.895 0 5.264 2.363 5.264 5.265v45.136C54.074 83.839 51.705 86.197 48.813 86.197zM13.525 34.175c-0.894 0-1.619 0.728-1.619 1.621v45.136c0 0.895 0.726 1.629 1.619 1.629h35.286c0.892 0 1.613-0.734 1.613-1.629V35.796c0-0.894-0.723-1.621-1.613-1.621H13.525z" fill="#81ffd9" data-fill-palette-color="accent"></path><path d="M37.283 40.951c-1.001-0.538-2.259-0.154-2.794 0.857l-1.421 2.673-8.961-20.677c-0.446-1.057-1.657-1.525-2.719-1.079-1.043 0.453-1.528 1.669-1.07 2.714l9.129 21.077-3.403-0.623c-1.128-0.185-2.201 0.549-2.405 1.664-0.204 1.125 0.544 2.2 1.663 2.404l7.207 1.313c0.124 0.022 0.248 0.033 0.372 0.033 0.273 0 0.555-0.053 0.822-0.171 0.055-0.021 0.088-0.065 0.135-0.1 0.086-0.035 0.146-0.097 0.221-0.147 0.221-0.158 0.4-0.346 0.538-0.562 0.027-0.05 0.083-0.071 0.107-0.118l3.437-6.465C38.679 42.738 38.29 41.489 37.283 40.951z" fill="#81ffd9" data-fill-palette-color="accent"></path><path d="M66.96 49.939c-0.012-0.024-0.033-0.041-0.042-0.068-0.011-0.051-0.044-0.08-0.064-0.124-0.172-0.378-0.42-0.679-0.742-0.896-0.033-0.016-0.033-0.052-0.066-0.063l-7.266-4.395c-0.971-0.581-2.238-0.278-2.832 0.701-0.59 0.979-0.278 2.25 0.701 2.841l3.336 2.015-17.437 5.425c-1.092 0.345-1.701 1.497-1.362 2.59 0.281 0.889 1.092 1.453 1.975 1.453 0.207 0 0.411-0.027 0.615-0.091l18.029-5.621-1.012 3.211c-0.345 1.086 0.245 2.247 1.346 2.592 0.204 0.066 0.42 0.097 0.623 0.097 0.872 0 1.69-0.56 1.971-1.441l2.217-6.986c0.012-0.035-0.012-0.074 0-0.111C67.045 50.704 67.078 50.323 66.96 49.939z" fill="#81ffd9" data-fill-palette-color="accent"></path><rect x="70.846" y="40.945" width="17.246" height="16.59" fill="#81ffd9" data-fill-palette-color="accent"></rect><rect x="1.911" y="3.803" width="25.636" height="3.677" fill="#81ffd9" data-fill-palette-color="accent"></rect><rect x="1.911" y="10.003" width="25.636" height="3.677" fill="#81ffd9" data-fill-palette-color="accent"></rect><rect x="1.911" y="16.203" width="25.636" height="3.677" fill="#81ffd9" data-fill-palette-color="accent"></rect><rect x="17.591" y="65.12" width="21.124" height="3.901" fill="#81ffd9" data-fill-palette-color="accent"></rect><rect x="17.591" y="72.01" width="21.124" height="3.902" fill="#81ffd9" data-fill-palette-color="accent"></rect></svg></g></svg></g></svg></g></svg></g></svg></g><defs></defs></svg><rect width="395.52" height="107.05293610288162" fill="none" stroke="none" visibility="hidden"></rect></g></svg></g></svg>